<svg width="40" height="21" viewBox="0 0 40 21" fill="none" xmlns="http://www.w3.org/2000/svg">
<rect width="40" height="15" rx="7.5" fill="#F94144"/>
<path d="M17.09 2.63H18.36V11.89H17.09V2.63ZM15.31 2.78H16.55V11.48H15.31V2.78ZM14.32 5.62H15.87V6.68H14.32V5.62ZM14.26 7.79H15.82V8.84H14.26V7.79ZM10.39 4.02H14.75V5.07H10.39V4.02ZM12.55 5.5C13.7 5.5 14.53 6.41 14.53 7.73C14.53 9.04 13.7 9.96 12.55 9.96C11.42 9.96 10.58 9.04 10.58 7.73C10.58 6.41 11.42 5.5 12.55 5.5ZM12.55 6.61C12.07 6.61 11.74 7.01 11.74 7.73C11.74 8.44 12.07 8.84 12.55 8.84C13.04 8.84 13.37 8.44 13.37 7.73C13.37 7.01 13.04 6.61 12.55 6.61ZM11.92 2.85H13.23V4.67H11.92V2.85ZM19.9092 6.85H20.5492C21.8892 6.85 22.7492 6.83 23.7692 6.66L23.8892 7.72C22.8292 7.9 21.9292 7.93 20.5492 7.93H19.9092V6.85ZM19.9092 3.25H23.5592V4.31H21.1892V7.44H19.9092V3.25ZM20.8092 5.06H23.4592V6.06H20.8092V5.06ZM26.2292 2.63H27.4892V8.28H26.2292V2.63ZM25.1192 4.9H26.5892V5.96H25.1192V4.9ZM24.2492 2.8H25.4892V8.22H24.2492V2.8ZM21.1292 8.68H27.4892V11.89H26.1692V9.74H21.1292V8.68Z" fill="white"/>
</svg>
