<svg width="30" height="31" viewBox="0 0 30 31" fill="none" xmlns="http://www.w3.org/2000/svg">
<path d="M15 1.25977C7.26801 1.25977 1 7.64484 1 15.5212C1 23.3975 7.26801 29.7827 15 29.7827C22.7319 29.7827 29 23.3975 29 15.5212C29 7.64484 22.7319 1.25977 15 1.25977Z" stroke="black" stroke-width="2" stroke-linecap="round" stroke-linejoin="round"/>
<path d="M4.1792 24.5711C4.1792 24.5711 7.29983 20.5127 14.9998 20.5127C22.6998 20.5127 25.8205 24.5711 25.8205 24.5711" stroke="black" stroke-width="2" stroke-linecap="round" stroke-linejoin="round"/>
<path d="M14.9998 15.5217C17.3195 15.5217 19.1998 13.6063 19.1998 11.2433C19.1998 8.88037 17.3195 6.96484 14.9998 6.96484C12.6801 6.96484 10.7998 8.88037 10.7998 11.2433C10.7998 13.6063 12.6801 15.5217 14.9998 15.5217Z" stroke="black" stroke-width="2" stroke-linecap="round" stroke-linejoin="round"/>
</svg>
